<mxfile host="app.diagrams.net" modified="2024-03-11T09:58:14.749Z" agent="Mozilla/5.0 (X11; Linux x86_64) AppleWebKit/537.36 (KHTML, like Gecko) Chrome/123.0.0.0 Safari/537.36 Edg/123.0.0.0" etag="_UxyOGyIXZFadCQn0rgG" version="24.0.4" type="device">
  <diagram name="PÃ¡gina-1" id="BEBTV5SIxSF2EIntQrWF">
    <mxGraphModel dx="1044" dy="553" grid="1" gridSize="10" guides="1" tooltips="1" connect="1" arrows="1" fold="1" page="1" pageScale="1" pageWidth="827" pageHeight="1169" math="0" shadow="0">
      <root>
        <mxCell id="0" />
        <mxCell id="1" parent="0" />
        <mxCell id="Td9s68YtqNVe94qM7-hu-1" value="User&lt;div&gt;&lt;br&gt;&lt;/div&gt;" style="shape=umlActor;verticalLabelPosition=bottom;verticalAlign=top;html=1;outlineConnect=0;fillColor=#b1ddf0;strokeColor=#10739e;" parent="1" vertex="1">
          <mxGeometry x="120" y="230" width="60" height="90" as="geometry" />
        </mxCell>
        <mxCell id="Td9s68YtqNVe94qM7-hu-2" value="&lt;div&gt;System&lt;/div&gt;&lt;div&gt;&lt;br&gt;&lt;/div&gt;&lt;div&gt;&lt;br&gt;&lt;/div&gt;&lt;div&gt;&lt;br&gt;&lt;/div&gt;&lt;div&gt;&lt;br&gt;&lt;/div&gt;&lt;div&gt;&lt;br&gt;&lt;/div&gt;&lt;div&gt;&lt;br&gt;&lt;/div&gt;&lt;div&gt;&lt;br&gt;&lt;/div&gt;&lt;div&gt;&lt;br&gt;&lt;/div&gt;&lt;div&gt;&lt;br&gt;&lt;/div&gt;&lt;div&gt;&lt;br&gt;&lt;/div&gt;&lt;div&gt;&lt;br&gt;&lt;/div&gt;&lt;div&gt;&lt;br&gt;&lt;/div&gt;&lt;div&gt;&lt;br&gt;&lt;/div&gt;&lt;div&gt;&lt;br&gt;&lt;/div&gt;&lt;div&gt;&lt;br&gt;&lt;/div&gt;&lt;div&gt;&lt;br&gt;&lt;/div&gt;&lt;div&gt;&lt;br&gt;&lt;/div&gt;&lt;div&gt;&lt;br&gt;&lt;/div&gt;&lt;div&gt;&lt;br&gt;&lt;/div&gt;&lt;div&gt;&lt;br&gt;&lt;/div&gt;&lt;div&gt;&lt;br&gt;&lt;/div&gt;&lt;div&gt;&lt;br&gt;&lt;/div&gt;&lt;div&gt;&lt;br&gt;&lt;/div&gt;&lt;div&gt;&lt;br&gt;&lt;/div&gt;&lt;div&gt;&lt;br&gt;&lt;/div&gt;&lt;div&gt;&lt;br&gt;&lt;/div&gt;" style="whiteSpace=wrap;html=1;aspect=fixed;labelBackgroundColor=none;fillColor=#004A94;strokeColor=#6c8ebf;fillStyle=auto;fontColor=#FFFFFF;" parent="1" vertex="1">
          <mxGeometry x="300" y="50" width="420" height="420" as="geometry" />
        </mxCell>
        <mxCell id="Td9s68YtqNVe94qM7-hu-3" value="Calculate Ideal Weight" style="ellipse;whiteSpace=wrap;html=1;fillColor=#b1ddf0;strokeColor=#10739e;" parent="1" vertex="1">
          <mxGeometry x="320" y="90" width="160" height="70" as="geometry" />
        </mxCell>
        <mxCell id="Td9s68YtqNVe94qM7-hu-4" value="Calculate Basal Metabolic Rate" style="ellipse;whiteSpace=wrap;html=1;fillColor=#b1ddf0;strokeColor=#10739e;" parent="1" vertex="1">
          <mxGeometry x="320" y="190" width="160" height="70" as="geometry" />
        </mxCell>
        <mxCell id="Td9s68YtqNVe94qM7-hu-5" value="" style="endArrow=none;html=1;rounded=0;entryX=0;entryY=0.5;entryDx=0;entryDy=0;fillColor=#b1ddf0;strokeColor=#10739e;" parent="1" source="Td9s68YtqNVe94qM7-hu-1" target="Td9s68YtqNVe94qM7-hu-4" edge="1">
          <mxGeometry width="50" height="50" relative="1" as="geometry">
            <mxPoint x="390" y="290" as="sourcePoint" />
            <mxPoint x="440" y="240" as="targetPoint" />
          </mxGeometry>
        </mxCell>
        <mxCell id="Td9s68YtqNVe94qM7-hu-6" value="" style="endArrow=none;html=1;rounded=0;entryX=0;entryY=0.5;entryDx=0;entryDy=0;fillColor=#b1ddf0;strokeColor=#10739e;" parent="1" source="Td9s68YtqNVe94qM7-hu-1" target="Td9s68YtqNVe94qM7-hu-3" edge="1">
          <mxGeometry width="50" height="50" relative="1" as="geometry">
            <mxPoint x="190" y="260" as="sourcePoint" />
            <mxPoint x="330" y="245" as="targetPoint" />
          </mxGeometry>
        </mxCell>
        <mxCell id="Td9s68YtqNVe94qM7-hu-7" value="Calculate IMB" style="ellipse;whiteSpace=wrap;html=1;fillColor=#b1ddf0;strokeColor=#10739e;" parent="1" vertex="1">
          <mxGeometry x="320" y="280" width="160" height="70" as="geometry" />
        </mxCell>
        <mxCell id="Td9s68YtqNVe94qM7-hu-8" value="Calculate recommended daily water intake" style="ellipse;whiteSpace=wrap;html=1;fillColor=#b1ddf0;strokeColor=#10739e;" parent="1" vertex="1">
          <mxGeometry x="320" y="370" width="160" height="70" as="geometry" />
        </mxCell>
        <mxCell id="Td9s68YtqNVe94qM7-hu-9" value="" style="endArrow=none;html=1;rounded=0;entryX=0;entryY=0.5;entryDx=0;entryDy=0;fillColor=#b1ddf0;strokeColor=#10739e;" parent="1" source="Td9s68YtqNVe94qM7-hu-1" target="Td9s68YtqNVe94qM7-hu-7" edge="1">
          <mxGeometry width="50" height="50" relative="1" as="geometry">
            <mxPoint x="190" y="260" as="sourcePoint" />
            <mxPoint x="520" y="230" as="targetPoint" />
          </mxGeometry>
        </mxCell>
        <mxCell id="Td9s68YtqNVe94qM7-hu-10" value="" style="endArrow=none;html=1;rounded=0;entryX=0;entryY=0.5;entryDx=0;entryDy=0;fillColor=#b1ddf0;strokeColor=#10739e;" parent="1" source="Td9s68YtqNVe94qM7-hu-1" target="Td9s68YtqNVe94qM7-hu-8" edge="1">
          <mxGeometry width="50" height="50" relative="1" as="geometry">
            <mxPoint x="190" y="260" as="sourcePoint" />
            <mxPoint x="330" y="325" as="targetPoint" />
          </mxGeometry>
        </mxCell>
        <mxCell id="12zReVZpq-7CLL59-1Ax-2" value="Ingresar datos" style="ellipse;whiteSpace=wrap;html=1;fillColor=#b1ddf0;strokeColor=#10739e;" vertex="1" parent="1">
          <mxGeometry x="550" y="240" width="160" height="70" as="geometry" />
        </mxCell>
        <mxCell id="12zReVZpq-7CLL59-1Ax-3" value="&amp;lt;&amp;lt;include&amp;gt;&amp;gt;" style="html=1;verticalAlign=bottom;endArrow=open;dashed=1;endSize=8;curved=0;rounded=0;entryX=0.188;entryY=0.149;entryDx=0;entryDy=0;entryPerimeter=0;exitX=0.99;exitY=0.6;exitDx=0;exitDy=0;exitPerimeter=0;fillColor=#dae8fc;strokeColor=#6c8ebf;" edge="1" parent="1" source="Td9s68YtqNVe94qM7-hu-3" target="12zReVZpq-7CLL59-1Ax-2">
          <mxGeometry x="0.0158" y="36" relative="1" as="geometry">
            <mxPoint x="400" y="200" as="sourcePoint" />
            <mxPoint x="320" y="200" as="targetPoint" />
            <Array as="points" />
            <mxPoint as="offset" />
          </mxGeometry>
        </mxCell>
        <mxCell id="12zReVZpq-7CLL59-1Ax-4" value="&amp;lt;&amp;lt;include&amp;gt;&amp;gt;" style="html=1;verticalAlign=bottom;endArrow=open;dashed=1;endSize=8;curved=0;rounded=0;entryX=0.03;entryY=0.4;entryDx=0;entryDy=0;entryPerimeter=0;fillColor=#dae8fc;strokeColor=#6c8ebf;exitX=0.99;exitY=0.68;exitDx=0;exitDy=0;exitPerimeter=0;" edge="1" parent="1" source="Td9s68YtqNVe94qM7-hu-4" target="12zReVZpq-7CLL59-1Ax-2">
          <mxGeometry x="0.0004" y="15" relative="1" as="geometry">
            <mxPoint x="488" y="142" as="sourcePoint" />
            <mxPoint x="545" y="266" as="targetPoint" />
            <Array as="points" />
            <mxPoint as="offset" />
          </mxGeometry>
        </mxCell>
        <mxCell id="12zReVZpq-7CLL59-1Ax-5" value="&amp;lt;&amp;lt;include&amp;gt;&amp;gt;" style="html=1;verticalAlign=bottom;endArrow=open;dashed=1;endSize=8;curved=0;rounded=0;exitX=1;exitY=0.5;exitDx=0;exitDy=0;fillColor=#dae8fc;strokeColor=#6c8ebf;entryX=0.033;entryY=0.663;entryDx=0;entryDy=0;entryPerimeter=0;" edge="1" parent="1" source="Td9s68YtqNVe94qM7-hu-7" target="12zReVZpq-7CLL59-1Ax-2">
          <mxGeometry x="0.2" y="-89" relative="1" as="geometry">
            <mxPoint x="498" y="152" as="sourcePoint" />
            <mxPoint x="530" y="290" as="targetPoint" />
            <Array as="points" />
            <mxPoint y="1" as="offset" />
          </mxGeometry>
        </mxCell>
        <mxCell id="12zReVZpq-7CLL59-1Ax-6" value="&amp;lt;&amp;lt;include&amp;gt;&amp;gt;" style="html=1;verticalAlign=bottom;endArrow=open;dashed=1;endSize=8;curved=0;rounded=0;entryX=0.247;entryY=0.903;entryDx=0;entryDy=0;entryPerimeter=0;exitX=1;exitY=0.5;exitDx=0;exitDy=0;fillColor=#dae8fc;strokeColor=#6c8ebf;" edge="1" parent="1" source="Td9s68YtqNVe94qM7-hu-8" target="12zReVZpq-7CLL59-1Ax-2">
          <mxGeometry x="0.2662" y="24" relative="1" as="geometry">
            <mxPoint x="508" y="162" as="sourcePoint" />
            <mxPoint x="565" y="286" as="targetPoint" />
            <Array as="points" />
            <mxPoint as="offset" />
          </mxGeometry>
        </mxCell>
      </root>
    </mxGraphModel>
  </diagram>
</mxfile>
